<svg width="423" height="756" version="1.1" viewBox="0 0 423 756" xmlns="http://www.w3.org/2000/svg" xmlns:xlink="http://www.w3.org/1999/xlink">
<defs>
<clipPath id="clipPath4">
<path d="m-0.0547-0.162h397v680h-397z" clip-rule="evenodd"/>
</clipPath>
<clipPath id="clipPath6">
<path d="m-0.0547-0.162h397v680h-397z" clip-rule="evenodd"/>
</clipPath>
<clipPath id="clipPath8">
<path d="m-0.0547-0.162h397v680h-397z" clip-rule="evenodd"/>
</clipPath>
<clipPath id="clipPath10">
<path d="m-0.0547-0.162h397v680h-397z" clip-rule="evenodd"/>
</clipPath>
<clipPath id="clipPath12">
<path d="m-0.0547-0.162h397v680h-397z" clip-rule="evenodd"/>
</clipPath>
<clipPath id="clipPath14">
<path d="m-0.0547-0.162h397v680h-397z" clip-rule="evenodd"/>
</clipPath>
<clipPath id="clipPath16">
<path d="m-0.0547-0.162h397v680h-397z" clip-rule="evenodd"/>
</clipPath>
<clipPath id="clipPath18">
<path d="m-0.0547-0.162h397v680h-397z" clip-rule="evenodd"/>
</clipPath>
<clipPath id="clipPath20">
<path d="m-0.0547-0.162h397v680h-397z" clip-rule="evenodd"/>
</clipPath>
<clipPath id="clipPath22">
<path d="m-0.0547-0.162h397v680h-397z" clip-rule="evenodd"/>
</clipPath>
<clipPath id="clipPath24">
<path d="m-0.0547-0.162h397v680h-397z" clip-rule="evenodd"/>
</clipPath>
<clipPath id="clipPath26">
<path d="m-0.0547-0.162h397v680h-397z" clip-rule="evenodd"/>
</clipPath>
<clipPath id="clipPath28">
<path d="m-0.0547-0.162h397v680h-397z" clip-rule="evenodd"/>
</clipPath>
<clipPath id="clipPath30">
<path d="m-0.0547-0.162h397v680h-397z" clip-rule="evenodd"/>
</clipPath>
<clipPath id="clipPath32">
<path d="m-0.0547-0.162h397v680h-397z" clip-rule="evenodd"/>
</clipPath>
<clipPath id="clipPath34">
<path d="m-0.0547-0.162h397v680h-397z" clip-rule="evenodd"/>
</clipPath>
<clipPath id="clipPath36">
<path d="m-0.0547-0.162h397v680h-397z" clip-rule="evenodd"/>
</clipPath>
<clipPath id="clipPath38">
<path d="m-0.0547-0.162h397v680h-397z" clip-rule="evenodd"/>
</clipPath>
<clipPath id="clipPath40">
<path d="m-0.0547-0.162h397v680h-397z" clip-rule="evenodd"/>
</clipPath>
<clipPath id="clipPath42">
<path d="m-0.0547-0.162h397v680h-397z" clip-rule="evenodd"/>
</clipPath>
<clipPath id="clipPath44">
<path d="m-0.0547-0.162h397v680h-397z" clip-rule="evenodd"/>
</clipPath>
<clipPath id="clipPath46">
<path d="m-0.0547-0.162h397v680h-397z" clip-rule="evenodd"/>
</clipPath>
<clipPath id="clipPath48">
<path d="m-0.0547-0.162h397v680h-397z" clip-rule="evenodd"/>
</clipPath>
<clipPath id="clipPath50">
<path d="m-0.0547-0.162h397v680h-397z" clip-rule="evenodd"/>
</clipPath>
<clipPath id="clipPath52">
<path d="m-0.0547-0.162h397v680h-397z" clip-rule="evenodd"/>
</clipPath>
<clipPath id="clipPath54">
<path d="m-0.0547-0.162h397v680h-397z" clip-rule="evenodd"/>
</clipPath>
<clipPath id="clipPath56">
<path d="m-0.0547-0.162h397v680h-397z" clip-rule="evenodd"/>
</clipPath>
<clipPath id="clipPath58">
<path d="m-0.0547-0.162h397v680h-397z" clip-rule="evenodd"/>
</clipPath>
<clipPath id="clipPath60">
<path d="m-0.0547-0.162h397v680h-397z" clip-rule="evenodd"/>
</clipPath>
<clipPath id="clipPath62">
<path d="m-0.0547-0.162h397v680h-397z" clip-rule="evenodd"/>
</clipPath>
<clipPath id="clipPath64">
<path d="m-0.0547-0.162h397v680h-397z" clip-rule="evenodd"/>
</clipPath>
<clipPath id="clipPath66">
<path d="m-0.0547-0.162h397v680h-397z" clip-rule="evenodd"/>
</clipPath>
<clipPath id="clipPath68">
<path d="m-0.0547-0.162h397v680h-397z" clip-rule="evenodd"/>
</clipPath>
<clipPath id="clipPath70">
<path d="m-0.0547-0.162h397v680h-397z" clip-rule="evenodd"/>
</clipPath>
<clipPath id="clipPath72">
<path d="m-0.0547-0.162h397v680h-397z" clip-rule="evenodd"/>
</clipPath>
<clipPath id="clipPath74">
<path d="m-0.0547-0.162h397v680h-397z" clip-rule="evenodd"/>
</clipPath>
<clipPath id="clipPath76">
<path d="m-0.0547-0.162h397v680h-397z" clip-rule="evenodd"/>
</clipPath>
<clipPath id="clipPath78">
<path d="m-0.0547-0.162h397v680h-397z" clip-rule="evenodd"/>
</clipPath>
<clipPath id="clipPath80">
<path d="m-0.0547-0.162h397v680h-397z" clip-rule="evenodd"/>
</clipPath>
<clipPath id="clipPath82">
<path d="m-0.0547-0.162h397v680h-397z" clip-rule="evenodd"/>
</clipPath>
<clipPath id="clipPath84">
<path d="m-0.0547-0.162h397v680h-397z" clip-rule="evenodd"/>
</clipPath>
<clipPath id="clipPath86">
<path d="m-0.0547-0.162h397v680h-397z" clip-rule="evenodd"/>
</clipPath>
<clipPath id="clipPath88">
<path d="m-0.0547-0.162h397v680h-397z" clip-rule="evenodd"/>
</clipPath>
<clipPath id="clipPath90">
<path d="m-0.0547-0.162h397v680h-397z" clip-rule="evenodd"/>
</clipPath>
</defs>
<g transform="translate(-60.9 -3.67)">
<text x="241.33347" y="19.135857" font-size="16px" stroke-width="1.33" xml:space="preserve"><tspan x="241.33347" y="19.135857" fill="#000000" font-family="'Noto Sans'" font-size="21.3px" stroke-width="1.33">2025</tspan></text>
<g fill-rule="evenodd">
<path d="m263 28.7h2.39v731h-2.39z" fill="#bec0c2"/>
<path transform="matrix(1.33 0 0 -1.33 0 773)" d="m199 550c-5.24 0-9.5-4.25-9.5-9.5 0-5.24 4.25-9.5 9.5-9.5 5.24 0 9.5 4.25 9.5 9.5 0 5.24-4.25 9.5-9.5 9.5" clip-path="url(#clipPath4)" fill="#f6e098"/>
<path transform="matrix(1.33 0 0 -1.33 0 773)" d="m245 545c-2.74 0-4.96-2.22-4.96-4.96s2.22-4.96 4.96-4.96 4.96 2.22 4.96 4.96-2.22 4.96-4.96 4.96" clip-path="url(#clipPath6)" fill="#f6e098"/>
</g>
<path transform="matrix(1.33 0 0 -1.33 0 773)" d="m199 548c-4.64 0-8.4-3.76-8.4-8.4 0-4.64 3.76-8.4 8.4-8.4 4.64 0 8.4 3.76 8.4 8.4 0 4.64-3.76 8.4-8.4 8.4z" clip-path="url(#clipPath8)" fill="none" stroke="#fff" stroke-miterlimit="22.9" stroke-width=".284"/>
<path transform="matrix(1.33 0 0 -1.33 0 773)" d="m240 541h-32.2v-0.901h32.2z" clip-path="url(#clipPath10)" fill="#f6e098" fill-rule="evenodd"/>
<g fill="#f6ca5d" fill-rule="evenodd">
<path transform="matrix(1.33 0 0 -1.33 0 773)" d="m199 502c5.24 0 9.5-4.25 9.5-9.5 0-5.24-4.25-9.5-9.5-9.5-5.24 0-9.5 4.25-9.5 9.5 0 5.24 4.25 9.5 9.5 9.5" clip-path="url(#clipPath12)"/>
<path transform="matrix(1.33 0 0 -1.33 0 773)" d="m152 497c2.74 0 4.96-2.22 4.96-4.96s-2.22-4.96-4.96-4.96-4.96 2.22-4.96 4.96 2.22 4.96 4.96 4.96" clip-path="url(#clipPath14)"/>
<path transform="matrix(1.33 0 0 -1.33 0 773)" d="m199 501c4.64 0 8.4-3.76 8.4-8.4 0-4.64-3.76-8.4-8.4-8.4-4.64 0-8.4 3.76-8.4 8.4 0 4.64 3.76 8.4 8.4 8.4z" clip-path="url(#clipPath16)" stroke="#fff" stroke-miterlimit="22.9" stroke-width=".284"/>
<path transform="matrix(1.33 0 0 -1.33 0 773)" d="m157 493h32.2v-0.901h-32.2z" clip-path="url(#clipPath18)"/>
</g>
<g fill="#cb7e2c" fill-rule="evenodd">
<path transform="matrix(1.33 0 0 -1.33 0 773)" d="m198 415c5.24 0 9.5-4.25 9.5-9.5 0-5.24-4.25-9.5-9.5-9.5-5.24 0-9.5 4.25-9.5 9.5 0 5.24 4.25 9.5 9.5 9.5" clip-path="url(#clipPath20)"/>
<path transform="matrix(1.33 0 0 -1.33 0 773)" d="m152 411c2.74 0 4.96-2.22 4.96-4.96s-2.22-4.96-4.96-4.96c-2.74 0-4.96 2.22-4.96 4.96s2.22 4.96 4.96 4.96" clip-path="url(#clipPath22)"/>
<path transform="matrix(1.33 0 0 -1.33 0 773)" d="m198 414c4.64 0 8.4-3.76 8.4-8.4 0-4.64-3.76-8.4-8.4-8.4-4.64 0-8.4 3.76-8.4 8.4 0 4.64 3.76 8.4 8.4 8.4z" clip-path="url(#clipPath24)" stroke="#fff" stroke-miterlimit="22.9" stroke-width=".284"/>
<path transform="matrix(1.33 0 0 -1.33 0 773)" d="m156 406h32.2v-0.901h-32.2z" clip-path="url(#clipPath26)"/>
<path transform="matrix(1.33 0 0 -1.33 0 773)" d="m198 450c-5.24 0-9.5-4.25-9.5-9.5s4.25-9.5 9.5-9.5c5.24 0 9.5 4.25 9.5 9.5s-4.25 9.5-9.5 9.5" clip-path="url(#clipPath28)"/>
<path transform="matrix(1.33 0 0 -1.33 0 773)" d="m245 446c-2.74 0-4.96-2.22-4.96-4.96s2.22-4.96 4.96-4.96 4.96 2.22 4.96 4.96-2.22 4.96-4.96 4.96" clip-path="url(#clipPath30)"/>
<path transform="matrix(1.33 0 0 -1.33 0 773)" d="m198 449c-4.64 0-8.4-3.76-8.4-8.4 0-4.64 3.76-8.4 8.4-8.4 4.64 0 8.4 3.76 8.4 8.4 0 4.64-3.76 8.4-8.4 8.4z" clip-path="url(#clipPath32)" stroke="#fff" stroke-miterlimit="22.9" stroke-width=".284"/>
<path transform="matrix(1.33 0 0 -1.33 0 773)" d="m240 441h-32.2v-0.901h32.2z" clip-path="url(#clipPath34)"/>
<path transform="matrix(1.33 0 0 -1.33 0 773)" d="m198 381c-5.24 0-9.5-4.25-9.5-9.5 0-5.24 4.25-9.5 9.5-9.5 5.24 0 9.5 4.25 9.5 9.5 0 5.24-4.25 9.5-9.5 9.5" clip-path="url(#clipPath36)"/>
<path transform="matrix(1.33 0 0 -1.33 0 773)" d="m245 376c-2.74 0-4.96-2.22-4.96-4.96 0-2.74 2.22-4.96 4.96-4.96s4.96 2.22 4.96 4.96c0 2.74-2.22 4.96-4.96 4.96" clip-path="url(#clipPath38)"/>
<path transform="matrix(1.33 0 0 -1.33 0 773)" d="m198 380c-4.64 0-8.4-3.76-8.4-8.4 0-4.64 3.76-8.4 8.4-8.4 4.64 0 8.4 3.76 8.4 8.4 0 4.64-3.76 8.4-8.4 8.4z" clip-path="url(#clipPath40)" stroke="#fff" stroke-miterlimit="22.9" stroke-width=".284"/>
<path transform="matrix(1.33 0 0 -1.33 0 773)" d="m240 372h-32.2v-0.901h32.2z" clip-path="url(#clipPath42)"/>
</g>
<g fill="#22546c" fill-rule="evenodd">
<path transform="matrix(1.33 0 0 -1.33 0 773)" d="m199 264c-5.24 0-9.5-4.25-9.5-9.5 0-5.24 4.25-9.5 9.5-9.5 5.24 0 9.5 4.25 9.5 9.5 0 5.24-4.25 9.5-9.5 9.5" clip-path="url(#clipPath44)"/>
<path transform="matrix(1.33 0 0 -1.33 0 773)" d="m245 259c-2.74 0-4.96-2.22-4.96-4.96s2.22-4.96 4.96-4.96c2.74 0 4.96 2.22 4.96 4.96s-2.22 4.96-4.96 4.96" clip-path="url(#clipPath46)"/>
<path transform="matrix(1.33 0 0 -1.33 0 773)" d="m199 263c-4.64 0-8.4-3.76-8.4-8.4 0-4.64 3.76-8.4 8.4-8.4 4.64 0 8.4 3.76 8.4 8.4 0 4.64-3.76 8.4-8.4 8.4z" clip-path="url(#clipPath48)" stroke="#fff" stroke-miterlimit="22.9" stroke-width=".284"/>
<path transform="matrix(1.33 0 0 -1.33 0 773)" d="m240 255h-32.2v-0.901h32.2z" clip-path="url(#clipPath50)"/>
<path transform="matrix(1.33 0 0 -1.33 0 773)" d="m199 299c5.24 0 9.5-4.25 9.5-9.5 0-5.24-4.25-9.5-9.5-9.5-5.24 0-9.5 4.25-9.5 9.5 0 5.24 4.25 9.5 9.5 9.5" clip-path="url(#clipPath52)"/>
<path transform="matrix(1.33 0 0 -1.33 0 773)" d="m152 294c2.74 0 4.96-2.22 4.96-4.96 0-2.74-2.22-4.96-4.96-4.96s-4.96 2.22-4.96 4.96c0 2.74 2.22 4.96 4.96 4.96" clip-path="url(#clipPath54)"/>
<path transform="matrix(1.33 0 0 -1.33 0 773)" d="m199 298c4.64 0 8.4-3.76 8.4-8.4 0-4.64-3.76-8.4-8.4-8.4-4.64 0-8.4 3.76-8.4 8.4 0 4.64 3.76 8.4 8.4 8.4z" clip-path="url(#clipPath56)" stroke="#fff" stroke-miterlimit="22.9" stroke-width=".284"/>
<path transform="matrix(1.33 0 0 -1.33 0 773)" d="m157 290h32.2v-0.901h-32.2z" clip-path="url(#clipPath58)"/>
<path transform="matrix(1.33 0 0 -1.33 0 773)" d="m199 229c5.24 0 9.5-4.25 9.5-9.5 0-5.24-4.25-9.5-9.5-9.5-5.24 0-9.5 4.25-9.5 9.5 0 5.24 4.25 9.5 9.5 9.5" clip-path="url(#clipPath60)"/>
<path transform="matrix(1.33 0 0 -1.33 0 773)" d="m152 225c2.74 0 4.96-2.22 4.96-4.96s-2.22-4.96-4.96-4.96-4.96 2.22-4.96 4.96 2.22 4.96 4.96 4.96" clip-path="url(#clipPath62)"/>
<path transform="matrix(1.33 0 0 -1.33 0 773)" d="m199 228c4.64 0 8.4-3.76 8.4-8.4 0-4.64-3.76-8.4-8.4-8.4-4.64 0-8.4 3.76-8.4 8.4 0 4.64 3.76 8.4 8.4 8.4z" clip-path="url(#clipPath64)" stroke="#fff" stroke-miterlimit="22.9" stroke-width=".284"/>
<path transform="matrix(1.33 0 0 -1.33 0 773)" d="m157 220h32.2v-0.901h-32.2z" clip-path="url(#clipPath66)"/>
</g>
<g fill="#7eabda" fill-rule="evenodd">
<path transform="matrix(1.33 0 0 -1.33 0 773)" d="m198 122c5.24 0 9.5-4.25 9.5-9.5 0-5.24-4.25-9.5-9.5-9.5-5.24 0-9.5 4.25-9.5 9.5 0 5.24 4.25 9.5 9.5 9.5" clip-path="url(#clipPath68)"/>
<path transform="matrix(1.33 0 0 -1.33 0 773)" d="m152 117c2.74 0 4.96-2.22 4.96-4.96 0-2.74-2.22-4.96-4.96-4.96s-4.96 2.22-4.96 4.96c0 2.74 2.22 4.96 4.96 4.96" clip-path="url(#clipPath70)"/>
<path transform="matrix(1.33 0 0 -1.33 0 773)" d="m198 120c4.64 0 8.4-3.76 8.4-8.4 0-4.64-3.76-8.4-8.4-8.4-4.64 0-8.4 3.76-8.4 8.4 0 4.64 3.76 8.4 8.4 8.4z" clip-path="url(#clipPath72)" stroke="#fff" stroke-miterlimit="22.9" stroke-width=".284"/>
<path transform="matrix(1.33 0 0 -1.33 0 773)" d="m157 113h32.2v-0.901h-32.2z" clip-path="url(#clipPath74)"/>
<path transform="matrix(1.33 0 0 -1.33 0 773)" d="m199 156c-5.24 0-9.5-4.25-9.5-9.5s4.25-9.5 9.5-9.5c5.24 0 9.5 4.25 9.5 9.5s-4.25 9.5-9.5 9.5" clip-path="url(#clipPath76)"/>
<path transform="matrix(1.33 0 0 -1.33 0 773)" d="m245 152c-2.74 0-4.96-2.22-4.96-4.96s2.22-4.96 4.96-4.96 4.96 2.22 4.96 4.96-2.22 4.96-4.96 4.96" clip-path="url(#clipPath78)"/>
<path transform="matrix(1.33 0 0 -1.33 0 773)" d="m199 155c-4.64 0-8.4-3.76-8.4-8.4 0-4.64 3.76-8.4 8.4-8.4 4.64 0 8.4 3.76 8.4 8.4 0 4.64-3.76 8.4-8.4 8.4z" clip-path="url(#clipPath80)" stroke="#fff" stroke-miterlimit="22.9" stroke-width=".284"/>
<path transform="matrix(1.33 0 0 -1.33 0 773)" d="m240 147h-32.2v-0.9h32.2z" clip-path="url(#clipPath82)"/>
<path transform="matrix(1.33 0 0 -1.33 0 773)" d="m199 87c-5.24 0-9.5-4.25-9.5-9.5 0-5.24 4.25-9.5 9.5-9.5 5.24 0 9.5 4.25 9.5 9.5 0 5.24-4.25 9.5-9.5 9.5" clip-path="url(#clipPath84)"/>
<path transform="matrix(1.33 0 0 -1.33 0 773)" d="m245 82.5c-2.74 0-4.96-2.22-4.96-4.96s2.22-4.96 4.96-4.96 4.96 2.22 4.96 4.96-2.22 4.96-4.96 4.96" clip-path="url(#clipPath86)"/>
<path transform="matrix(1.33 0 0 -1.33 0 773)" d="m199 85.9c-4.64 0-8.4-3.76-8.4-8.4 0-4.64 3.76-8.4 8.4-8.4 4.64 0 8.4 3.76 8.4 8.4 0 4.64-3.76 8.4-8.4 8.4z" clip-path="url(#clipPath88)" stroke="#fff" stroke-miterlimit="22.9" stroke-width=".284"/>
<path transform="matrix(1.33 0 0 -1.33 0 773)" d="m240 78h-32.2v-0.901h32.2z" clip-path="url(#clipPath90)"/>
</g>
<g stroke-width="1.33">
<text x="348.47879" y="56.085327" font-size="16px" xml:space="preserve"><tspan x="348.47879" y="56.085327" fill="#000000" font-family="'Noto Sans'" font-size="16px" stroke-width="1.33">January 24th</tspan></text>
<text x="348.47879" y="71.612396" font-size="16px" xml:space="preserve"><tspan x="348.47879" y="71.612396" fill="#000000" font-family="'Noto Sans'" font-size="10.7px" stroke-width="1.33">Start of the competition</tspan></text>
<text x="348.47879" y="85.8004" font-size="16px" xml:space="preserve"><tspan x="348.47879" y="85.8004" dx="0 -0.1032" fill="#000000" font-family="'Noto Sans'" font-size="10.7px" stroke-width="1.33">Registration form opening</tspan></text>
<text x="82.998802" y="236.76532" font-size="16px" xml:space="preserve"><tspan x="82.998802" y="236.76532" dx="0 -0.63746667 0 0 0 0 0 0 0 -0.019733332" fill="#000000" font-family="'Noto Sans'" font-size="16px" stroke-width="1.33">February 21st</tspan></text>
<text x="82.204399" y="258.04745" font-size="16px" xml:space="preserve"><tspan x="82.204399" y="258.04745" fill="#000000" font-family="'Noto Sans'" font-size="16px" stroke-width="1.33">23:59 GMT+0</tspan></text>
<text x="64.629204" y="273.57413" font-size="16px" xml:space="preserve"><tspan x="64.629204" y="273.57413" fill="#000000" font-family="'Noto Sans'" font-size="10.7px" stroke-width="1.33">Deadline for submission </tspan></text>
<text x="81.492264" y="287.76254" font-size="16px" xml:space="preserve"><tspan x="81.492264" y="287.76254" fill="#000000" font-family="'Noto Sans'" font-size="10.7px" stroke-width="1.33">In the ﬁrst validation </tspan></text>
<text x="126.322" y="301.95093" font-size="16px" xml:space="preserve"><tspan x="126.322" y="301.95093" fill="#000000" font-family="'Noto Sans'" font-size="10.7px" stroke-width="1.33">checkpoint</tspan></text>
<text x="89.569466" y="122.07213" font-size="16px" xml:space="preserve"><tspan x="89.569466" y="122.07213" dx="0 -0.63746667" fill="#000000" font-family="'Noto Sans'" font-size="16px" stroke-width="1.33">February 7th</tspan></text>
<text x="99.170937" y="137.5988" font-size="16px" xml:space="preserve"><tspan x="99.170937" y="137.5988" fill="#000000" font-family="'Noto Sans'" font-size="10.7px" stroke-width="1.33">The train dataset </tspan></text>
<text x="66.971199" y="151.7868" font-size="16px" xml:space="preserve"><tspan x="66.971199" y="151.7868" fill="#000000" font-family="'Noto Sans'" font-size="10.7px" stroke-width="1.33">is sent to the registered </tspan></text>
<text x="123.07293" y="165.97519" font-size="16px" xml:space="preserve"><tspan x="123.07293" y="165.97519" fill="#000000" font-family="'Noto Sans'" font-size="10.7px" stroke-width="1.33">participants</tspan></text>
<text x="348.42294" y="189.76907" font-size="16px" xml:space="preserve"><tspan x="348.42294" y="189.76907" dx="0 -0.63786662" fill="#000000" font-family="'Noto Sans'" font-size="16px" stroke-width="1.33">February 18th</tspan></text>
<text x="348.42252" y="205.29614" font-size="16px" xml:space="preserve"><tspan x="348.42252" y="205.29614" fill="#000000" font-family="'Noto Sans'" font-size="10.7px" stroke-width="1.33">The ﬁrst validation dataset </tspan></text>
<text x="348.42252" y="219.48453" font-size="16px" xml:space="preserve"><tspan x="348.42252" y="219.48453" fill="#000000" font-family="'Noto Sans'" font-size="10.7px" stroke-width="1.33">is sent to the registered </tspan></text>
<text x="348.42252" y="233.67294" font-size="16px" xml:space="preserve"><tspan x="348.42252" y="233.67294" fill="#000000" font-family="'Noto Sans'" font-size="10.7px" stroke-width="1.33">participants</tspan></text>
<text x="348.42294" y="282.9288" font-size="16px" xml:space="preserve"><tspan x="348.42294" y="282.9288" dx="0 -0.63786662" fill="#000000" font-family="'Noto Sans'" font-size="16px" stroke-width="1.33">February 23rd</tspan></text>
<text x="348.42252" y="298.45587" font-size="16px" xml:space="preserve"><tspan x="348.42252" y="298.45587" dx="0 0 0 0 0 0 0 0 0 0 -0.32093334" fill="#000000" font-family="'Noto Sans'" font-size="10.7px" stroke-width="1.33">The people’s choice </tspan></text>
<text x="348.42212" y="312.64386" font-size="16px" xml:space="preserve"><tspan x="348.42212" y="312.64386" fill="#000000" font-family="'Noto Sans'" font-size="10.7px" stroke-width="1.33">of the ﬁrst validation </tspan></text>
<text x="348.42212" y="326.83188" font-size="16px" xml:space="preserve"><tspan x="348.42212" y="326.83188" fill="#000000" font-family="'Noto Sans'" font-size="10.7px" stroke-width="1.33">dataset is published</tspan></text>
<text x="102.06013" y="392.20172" font-size="16px" xml:space="preserve"><tspan x="102.06013" y="392.20172" fill="#000000" font-family="'Noto Sans'" font-size="16px" stroke-width="1.33">March 2nd</tspan></text>
<text x="75.514931" y="407.72882" font-size="16px" xml:space="preserve"><tspan x="75.514931" y="407.72882" fill="#000000" font-family="'Noto Sans'" font-size="10.7px" stroke-width="1.33">The second validation </tspan></text>
<text x="110.88067" y="421.91718" font-size="16px" xml:space="preserve"><tspan x="110.88067" y="421.91718" fill="#000000" font-family="'Noto Sans'" font-size="10.7px" stroke-width="1.33">dataset is sent </tspan></text>
<text x="99.682671" y="436.10522" font-size="16px" xml:space="preserve"><tspan x="99.682671" y="436.10522" fill="#000000" font-family="'Noto Sans'" font-size="10.7px" stroke-width="1.33">to the registered </tspan></text>
<text x="123.07267" y="450.29358" font-size="16px" xml:space="preserve"><tspan x="123.07267" y="450.29358" fill="#000000" font-family="'Noto Sans'" font-size="10.7px" stroke-width="1.33">participants</tspan></text>
<text x="106.21227" y="486.25867" font-size="16px" xml:space="preserve"><tspan x="106.21227" y="486.25867" fill="#000000" font-family="'Noto Sans'" font-size="16px" stroke-width="1.33">March 6th</tspan></text>
<text x="85.679604" y="501.78571" font-size="16px" xml:space="preserve"><tspan x="85.679604" y="501.78571" dx="0 0 0 0 0 0 0 0 0 0 -0.32053334" fill="#000000" font-family="'Noto Sans'" font-size="10.7px" stroke-width="1.33">The people’s choice </tspan></text>
<text x="65.131065" y="515.97412" font-size="16px" xml:space="preserve"><tspan x="65.131065" y="515.97412" fill="#000000" font-family="'Noto Sans'" font-size="10.7px" stroke-width="1.33">of the second validation </tspan></text>
<text x="84.623596" y="530.16211" font-size="16px" xml:space="preserve"><tspan x="84.623596" y="530.16211" fill="#000000" font-family="'Noto Sans'" font-size="10.7px" stroke-width="1.33">dataset is published</tspan></text>
<text x="348.13641" y="438.67212" font-size="16px" xml:space="preserve"><tspan x="348.13641" y="438.67212" fill="#000000" font-family="'Noto Sans'" font-size="16px" stroke-width="1.33">March 4th</tspan></text>
<text x="348.13641" y="459.95465" font-size="16px" xml:space="preserve"><tspan x="348.13641" y="459.95465" fill="#000000" font-family="'Noto Sans'" font-size="16px" stroke-width="1.33">23:59 GMT+0</tspan></text>
<text x="348.13641" y="475.48175" font-size="16px" xml:space="preserve"><tspan x="348.13641" y="475.48175" fill="#000000" font-family="'Noto Sans'" font-size="10.7px" stroke-width="1.33">Deadline for submission </tspan></text>
<text x="348.13641" y="489.6701" font-size="16px" xml:space="preserve"><tspan x="348.13641" y="489.6701" fill="#000000" font-family="'Noto Sans'" font-size="10.7px" stroke-width="1.33">In the second validation </tspan></text>
<text x="348.13641" y="503.85815" font-size="16px" xml:space="preserve"><tspan x="348.13641" y="503.85815" fill="#000000" font-family="'Noto Sans'" font-size="10.7px" stroke-width="1.33">checkpoint</tspan></text>
<text x="97.222664" y="628.71094" font-size="16px" xml:space="preserve"><tspan x="97.222664" y="628.71094" fill="#933327" font-family="'Noto Sans'" font-size="16px" stroke-width="1.33">March 18th</tspan></text>
<text x="82.20507" y="649.99347" font-size="16px" xml:space="preserve"><tspan x="82.20507" y="649.99347" fill="#933327" font-family="'Noto Sans'" font-size="16px" stroke-width="1.33">23:59 GMT+0</tspan></text>
<text x="64.629868" y="665.52051" font-size="16px" xml:space="preserve"><tspan x="64.629868" y="665.52051" fill="#000000" font-family="'Noto Sans'" font-size="10.7px" stroke-width="1.33">Deadline for submission </tspan></text>
<text x="79.294403" y="679.70892" font-size="16px" xml:space="preserve"><tspan x="79.294403" y="679.70892" fill="#000000" font-family="'Noto Sans'" font-size="10.7px" stroke-width="1.33">In the ﬁnal validation </tspan></text>
<text x="80.373466" y="693.89691" font-size="16px" xml:space="preserve"><tspan x="80.373466" y="693.89691" fill="#933327" font-family="'Noto Sans'" font-size="10.7px" stroke-width="1.33">Additional to Docker </tspan></text>
<text x="69.003868" y="708.08533" fill="#933327" font-family="'Noto Sans'" font-size="10.7px" xml:space="preserve"><tspan x="69.003868" y="708.08533" dx="0 0 0 0 0 0 0 0 0 -0.8096">container, it is </tspan><tspan x="136.7524" y="708.08533" font-weight="bold">required</tspan><tspan x="177.8472" y="708.08533"> </tspan></text>
<text x="96.260803" y="722.27332" font-size="16px" xml:space="preserve"><tspan x="96.260803" y="722.27332" fill="#933327" font-family="'Noto Sans'" font-size="10.7px" stroke-width="1.33">to submit reports </tspan></text>
<text x="60.421467" y="736.4613" font-size="16px" xml:space="preserve"><tspan x="60.421467" y="736.4613" fill="#933327" font-family="'Noto Sans'" font-size="10.7px" stroke-width="1.33">about the solution in .tex</tspan></text>
<text x="348.42294" y="581.59119" font-size="16px" xml:space="preserve"><tspan x="348.42294" y="581.59119" fill="#933327" font-family="'Noto Sans'" font-size="16px" stroke-width="1.33">March 16th</tspan></text>
<text x="348.42294" y="597.11829" font-size="16px" xml:space="preserve"><tspan x="348.42294" y="597.11829" fill="#000000" font-family="'Noto Sans'" font-size="10.7px" stroke-width="1.33">The ﬁnal validation dataset </tspan></text>
<text x="348.42294" y="611.30664" font-size="16px" xml:space="preserve"><tspan x="348.42294" y="611.30664" fill="#000000" font-family="'Noto Sans'" font-size="10.7px" stroke-width="1.33">is sent to the registered </tspan></text>
<text x="348.42294" y="625.49506" font-size="16px" xml:space="preserve"><tspan x="348.42294" y="625.49506" fill="#000000" font-family="'Noto Sans'" font-size="10.7px" stroke-width="1.33">participants</tspan></text>
<text x="348.42294" y="674.75092" font-size="16px" xml:space="preserve"><tspan x="348.42294" y="674.75092" fill="#933327" font-family="'Noto Sans'" font-size="16px" stroke-width="1.33">March 21st</tspan></text>
<text x="348.42294" y="690.27759" font-size="16px" xml:space="preserve"><tspan x="348.42294" y="690.27759" dx="0 0 0 0 0 0 0 0 0 0 -0.32093334" fill="#000000" font-family="'Noto Sans'" font-size="10.7px" stroke-width="1.33">The people’s choice </tspan></text>
<text x="348.42252" y="704.46558" font-size="16px" xml:space="preserve"><tspan x="348.42252" y="704.46558" fill="#000000" font-family="'Noto Sans'" font-size="10.7px" stroke-width="1.33">of the ﬁnal validation </tspan></text>
<text x="348.42252" y="718.65363" font-size="16px" xml:space="preserve"><tspan x="348.42252" y="718.65363" fill="#000000" font-family="'Noto Sans'" font-size="10.7px" stroke-width="1.33">dataset is published</tspan></text>
</g>
</g>
</svg>
